<?xml version="1.0" encoding="UTF-8"?>
<svg version="1.1" xmlns="http://www.w3.org/2000/svg" width="128" height="128">
<path d="M0 0 C10.23 0 20.46 0 31 0 C31 18.81 31 37.62 31 57 C32.32 57 33.64 57 35 57 C35 52.38 35 47.76 35 43 C39.18539189 46.52885983 43.1521825 50.10049539 47 54 C48.89399543 55.91849389 50.79027212 57.83470329 52.6875 59.75 C53.17283203 60.24371094 53.65816406 60.73742187 54.15820312 61.24609375 C56.81840217 63.96615276 56.81840217 63.96615276 60 66 C58.43904931 69.73806611 56.12570854 72.13242541 53.28125 74.984375 C51.88326172 76.38623047 51.88326172 76.38623047 50.45703125 77.81640625 C49.97186035 78.2973877 49.48668945 78.77836914 48.98681641 79.27392578 C47.49793661 80.75204848 46.02008349 82.24059911 44.54296875 83.73046875 C43.61097656 84.65988281 42.67898437 85.58929688 41.71875 86.546875 C40.86216797 87.40120117 40.00558594 88.25552734 39.12304688 89.13574219 C37 91 37 91 35 91 C35 86.38 35 81.76 35 77 C25.1 77 15.2 77 5 77 C4.979375 73.885625 4.95875 70.77125 4.9375 67.5625 C4.928396 66.57967041 4.91929199 65.59684082 4.90991211 64.58422852 C4.90741455 63.81522217 4.90491699 63.04621582 4.90234375 62.25390625 C4.89448853 61.06776733 4.89448853 61.06776733 4.88647461 59.85766602 C5 58 5 58 6 57 C7.98 57 9.96 57 12 57 C11.67 51.72 11.34 46.44 11 41 C9.865625 42.010625 8.73125 43.02125 7.5625 44.0625 C6.92441406 44.63097656 6.28632812 45.19945312 5.62890625 45.78515625 C3.36656782 48.49578041 3.36656782 48.49578041 3 55 C-3.27 55 -9.54 55 -16 55 C-17.63660714 41.64748884 -17.63660714 41.64748884 -13.5625 36.32470703 C-10.29381293 32.63556777 -6.66407601 29.35061571 -3 26.0625 C-1.743989 24.88186911 -0.49134679 23.69764356 0.7578125 22.50976562 C3.80126739 19.63024565 6.88621227 16.80323709 10 14 C8.39950461 10.59171882 6.6254974 8.46776278 3.875 5.875 C2.54605277 4.62172237 1.24452827 3.33714433 0 2 C0 1.34 0 0.68 0 0 Z " fill="#E8723B" transform="translate(56,11)"/>
<path d="M0 0 C15.51 0 31.02 0 47 0 C47 7.26 47 14.52 47 22 C55.25 22 63.5 22 72 22 C70.0434944 25.91301121 68.32810022 27.89219415 65.24609375 30.9140625 C64.30958984 31.83960937 63.37308594 32.76515625 62.40820312 33.71875 C61.41831227 34.68785102 60.42807386 35.65659713 59.4375 36.625 C57.49549092 38.53065371 55.55765812 40.44035631 53.62109375 42.3515625 C52.7592749 43.19541504 51.89745605 44.03926758 51.00952148 44.90869141 C48.95795963 46.83637401 48.95795963 46.83637401 48 49 C41.4 49 34.8 49 28 49 C28 39.43 28 29.86 28 20 C18.76 20 9.52 20 0 20 C0 13.4 0 6.8 0 0 Z " fill="#338ABA" transform="translate(12,68)"/>
<path d="M0 0 C10.23 0 20.46 0 31 0 C31 18.81 31 37.62 31 57 C32.32 57 33.64 57 35 57 C35 52.38 35 47.76 35 43 C35.66 43.66 36.32 44.32 37 45 C36.96631321 49.36805319 36.42669049 53.64775705 36 58 C28.41 58 20.82 58 13 58 C13.0309375 53.24916016 13.0309375 53.24916016 13.0625 48.40234375 C13.05527449 45.32089559 13.03439386 42.23981976 13.01220703 39.15844727 C13.00411653 37.02368801 13.01013368 34.88882531 13.03076172 32.75415039 C13.05801052 29.67718734 13.03384002 26.6041688 13 23.52734375 C13.0194165 22.57915268 13.03883301 21.63096161 13.05883789 20.65403748 C12.97236356 16.64394726 12.85282379 14.03122996 10.24023438 10.87210083 C8.23214553 9.10814256 6.17980765 7.54332297 4 6 C1.5 3.6875 1.5 3.6875 0 2 C0 1.34 0 0.68 0 0 Z " fill="#6BB159" transform="translate(56,11)"/>
<path d="M0 0 C0.66 0.33 1.32 0.66 2 1 C2 15.85 2 30.7 2 46 C-0.31 46 -2.62 46 -5 46 C-5 45.67 -5 45.34 -5 45 C-3.02 45 -1.04 45 1 45 C0.67 39.72 0.34 34.44 0 29 C-1.134375 30.010625 -2.26875 31.02125 -3.4375 32.0625 C-4.07558594 32.63097656 -4.71367188 33.19945312 -5.37109375 33.78515625 C-7.63343218 36.49578041 -7.63343218 36.49578041 -8 43 C-14.27 43 -20.54 43 -27 43 C-28.62893547 29.63013837 -28.62893547 29.63013837 -24.57861328 24.35693359 C-21.32322689 20.70056187 -17.70987419 17.44447234 -14.0625 14.1875 C-12.81489817 13.02388228 -11.57071952 11.85658294 -10.33007812 10.68554688 C-8.07405383 8.55827655 -5.79717558 6.45866197 -3.50024414 4.37573242 C-0.98690597 2.25743041 -0.98690597 2.25743041 0 0 Z " fill="#EEBC27" transform="translate(67,23)"/>
<path d="M0 0 C8.25 0 16.5 0 25 0 C23.05130455 3.8973909 21.33979823 5.89291187 18.28125 8.9140625 C16.88326172 10.30238281 16.88326172 10.30238281 15.45703125 11.71875 C14.47147004 12.68761788 13.48579167 13.65636661 12.5 14.625 C11.51386272 15.60109779 10.52818065 16.5776557 9.54296875 17.5546875 C7.03271999 20.04063233 4.51686548 22.52076016 2 25 C1.34 25.66 0.68 26.32 0 27 C0 18.09 0 9.18 0 0 Z " fill="#F3BE23" transform="translate(59,90)"/>
<path d="M0 0 C0.72900391 1.73168945 0.72900391 1.73168945 1 4 C-0.45947266 6.09057617 -0.45947266 6.09057617 -2.6640625 8.29296875 C-3.45683594 9.08767578 -4.24960937 9.88238281 -5.06640625 10.70117188 C-5.91074219 11.52166016 -6.75507812 12.34214844 -7.625 13.1875 C-8.44613281 14.01958984 -9.26726563 14.85167969 -10.11328125 15.70898438 C-16.89668802 22.41046594 -16.89668802 22.41046594 -22 23 C-17.47008204 17.56266945 -12.65705784 12.53541069 -7.625 7.5625 C-6.88894531 6.83095703 -6.15289062 6.09941406 -5.39453125 5.34570312 C-3.59863926 3.56147277 -1.80044015 1.77963876 0 0 Z " fill="#F1C02C" transform="translate(63,28)"/>
<path d="M0 0 C8.25 0 16.5 0 25 0 C23.11656068 3.76687864 22.30867531 4.79421646 19 7 C18.34 6.67 17.68 6.34 17 6 C17 4.68 17 3.36 17 2 C11.39 1.67 5.78 1.34 0 1 C0 0.67 0 0.34 0 0 Z " fill="#F5D870" transform="translate(59,90)"/>
<path d="M0 0 C0.33 0.99 0.66 1.98 1 3 C-0.2578125 5.0078125 -0.2578125 5.0078125 -2.125 7.125 C-2.72570313 7.82882813 -3.32640625 8.53265625 -3.9453125 9.2578125 C-6.31139318 11.264033 -7.95461799 11.65225742 -11 12 C-7.49102731 7.81576108 -3.91939465 3.80411834 0 0 Z " fill="#F2C643" transform="translate(52,39)"/>
<path d="M0 0 C3.7952131 1.49097658 5.61042731 3.75700849 8 7 C5 7 5 7 2.3125 4.625 C0 2 0 2 0 0 Z " fill="#E3723E" transform="translate(106,70)"/>
<path d="M0 0 C0.33 1.32 0.66 2.64 1 4 C-0.32 4.99 -1.64 5.98 -3 7 C-3.66 6.34 -4.32 5.68 -5 5 C-3.35 3.35 -1.7 1.7 0 0 Z " fill="#F1C43B" transform="translate(63,28)"/>
<path d="M0 0 C4.29 0 8.58 0 13 0 C13 0.33 13 0.66 13 1 C9.7 1 6.4 1 3 1 C2.67 1.99 2.34 2.98 2 4 C1.34 2.68 0.68 1.36 0 0 Z " fill="#81B275" transform="translate(56,11)"/>
</svg>
